<?xml version="1.0" encoding="utf-8"?>
<!-- Generator: Adobe Illustrator 18.0.0, SVG Export Plug-In . SVG Version: 6.00 Build 0)  -->
<!DOCTYPE svg PUBLIC "-//W3C//DTD SVG 1.1//EN" "http://www.w3.org/Graphics/SVG/1.1/DTD/svg11.dtd">
<svg version="1.1" id="Capa_1" xmlns="http://www.w3.org/2000/svg" xmlns:xlink="http://www.w3.org/1999/xlink" x="0px" y="0px"
	 viewBox="0 179 612 613" enable-background="new 0 179 612 613" xml:space="preserve">
<path fill="#2C3E50" d="M501.9,720c65.9-55,108.5-137.2,110.1-229.8c2.9-168.9-131.7-308.3-300.7-311.2
	C142.4,176.2,3,310.8,0.1,479.8c-1.6,95.8,41.1,181.8,109,239.1L109,719c53.2,44.9,121.9,72,197,72C380.5,791,448.8,764.3,501.9,720
	"/>
<g>
	<g>
		<path fill="#E7ECED" d="M367.5,551.9H249.9c-2.8,0-5.1-2.3-5.1-5.1v-81.1c0-2.8,2.3-5.1,5.1-5.1h117.6c2.8,0,5.1,2.3,5.1,5.1v81.1
			C372.5,549.6,370.2,551.9,367.5,551.9z"/>
		<path fill="#E7ECED" d="M148.4,543.2c0.7,0,1.5-0.2,2.2-0.3c3.3-1.2,5.1-4.9,3.9-8.2c-21-58.5-7.1-122.6,36.4-167.1
			c30.1-30.8,70.3-47.9,113.3-48.5c42.9-0.5,83.7,15.8,114.4,45.9l1,0.9l-19.5,0.2c-3.6,0.1-6.4,3-6.4,6.6c0.1,3.6,2.9,6.4,6.5,6.4
			h0.1l35.1-0.4c1.7,0,3.3-0.7,4.6-1.9s1.8-2.8,1.8-4.6l-0.4-35.1c-0.1-3.6-2.9-6.5-6.6-6.4c-3.6,0.1-6.4,3-6.4,6.6l0.2,19.5l-1-0.9
			c-32.7-32-75.8-49.5-121.6-49.5c-0.7,0-1.3,0-2.1,0c-46.4,0.5-89.9,19.1-122.3,52.4c-23.3,23.7-39.1,53.5-45.9,86
			c-6.6,31.6-4.3,64.2,6.6,94.6C143.3,541.5,145.7,543.2,148.4,543.2z"/>
		<path fill="#E7ECED" d="M469.7,421.2c-1.2-3.3-4.9-5.1-8.2-3.9c-3.3,1.3-5.1,4.9-3.9,8.2c21,58.5,7,122.6-36.5,167
			c-31.6,32.3-73.3,48.4-115.1,48.4c-40.6,0-81.2-15.3-112.5-45.8l-1-0.9l19.5-0.2c3.6-0.1,6.4-3,6.4-6.6c-0.1-3.6-2.9-6.4-6.5-6.4
			h-0.1l-35.1,0.4c-3.6,0.1-6.4,3-6.4,6.6l0.4,35.1c0.1,3.6,2.9,6.4,6.5,6.4h0.1c3.6-0.1,6.4-3,6.4-6.6l-0.2-19.5l1,0.9
			c33.8,33,77.7,49.4,121.6,49.4c45.2,0,90.4-17.5,124.4-52.3c23.3-23.7,39.1-53.5,45.9-86C482.9,484.1,480.6,451.5,469.7,421.2z"/>
		<path fill="#E7ECED" d="M308.6,376.9c-28.5,0-51.6,23.1-51.6,51.6v25.8H255c-9.3,0-16.8,7.5-16.8,16.8v70.6
			c0,9.3,7.5,16.8,16.8,16.8h107.3c9.3,0,16.8-7.5,16.8-16.8V471c0-9.3-7.5-16.8-16.8-16.8h-2.1v-25.8
			C360.2,400,337,376.9,308.6,376.9z M270,428.4c0-21.4,17.4-38.7,38.7-38.7c21.4,0,38.7,17.4,38.7,38.7v25.8h-77.4L270,428.4
			L270,428.4z M366,470.9v70.6c0,2.1-1.7,3.9-3.9,3.9H255c-2.1,0-3.9-1.7-3.9-3.9v-70.6c0-2.1,1.7-3.9,3.9-3.9h107.2
			C364.4,467,366,468.8,366,470.9z"/>
		<path fill="#E7ECED" d="M310.3,489.6c-4.3-0.9-8.9,1.6-10.7,5.7c-1.9,4.2-0.6,9,3.2,11.9c0.8,0.6,0.9,1.1,0.9,2
			c0,4.2,0,8.5,0,12.7l0,0c0,3.5,3.7,6.1,7.4,4.3c1.6-0.8,2.5-2.5,2.4-4.3l0,0c0-4.2,0-8.5,0-12.7c0-0.9,0.2-1.5,1-2.1
			c2.6-1.9,4-4.6,4-7.9C318.4,494.5,315,490.6,310.3,489.6z"/>
	</g>
</g>
</svg>
