<?xml version="1.0" encoding="utf-8"?>
<!-- Generator: Adobe Illustrator 18.0.0, SVG Export Plug-In . SVG Version: 6.00 Build 0)  -->
<!DOCTYPE svg PUBLIC "-//W3C//DTD SVG 1.1//EN" "http://www.w3.org/Graphics/SVG/1.1/DTD/svg11.dtd">
<svg version="1.1" id="Capa_1" xmlns="http://www.w3.org/2000/svg" xmlns:xlink="http://www.w3.org/1999/xlink" x="0px" y="0px"
	 viewBox="0 180 612 612" enable-background="new 0 180 612 612" xml:space="preserve">
<path fill="#2C3E50" d="M501.9,721c65.9-55,108.5-137.2,110.1-229.8c2.9-168.9-131.7-308.3-300.7-311.2
	C142.4,177.2,3,311.8,0.1,480.8c-1.6,95.8,41.1,181.8,109,239.1c0,0-0.1,0.1-0.1,0.1c53.2,44.9,121.9,72,197,72
	C380.5,792,448.8,765.3,501.9,721"/>
<g>
	<g>
		<path fill="#E7ECED" d="M306,529.3l-41.8-36.6L144.6,595.2c4.3,4,10.2,6.5,16.7,6.5h289.4c6.4,0,12.3-2.5,16.6-6.5L347.8,492.7
			L306,529.3z"/>
		<path fill="#E7ECED" d="M467.4,366.8c-4.3-4.1-10.2-6.5-16.7-6.5H161.3c-6.4,0-12.3,2.5-16.6,6.6L306,505.1L467.4,366.8z"/>
		<polygon fill="#E7ECED" points="137,381.5 137,582.1 253.7,482.9 		"/>
		<polygon fill="#E7ECED" points="358.3,482.9 475,582.1 475,381.4 		"/>
	</g>
</g>
</svg>
