<?xml version="1.0" encoding="utf-8"?>
<!-- Generator: Adobe Illustrator 18.0.0, SVG Export Plug-In . SVG Version: 6.00 Build 0)  -->
<!DOCTYPE svg PUBLIC "-//W3C//DTD SVG 1.1//EN" "http://www.w3.org/Graphics/SVG/1.1/DTD/svg11.dtd">
<svg version="1.1" id="Capa_1" xmlns="http://www.w3.org/2000/svg" xmlns:xlink="http://www.w3.org/1999/xlink" x="0px" y="0px"
	 viewBox="0 90 612 612" enable-background="new 0 90 612 612" xml:space="preserve">
<path fill="#E7ECED" d="M214.9,569.8l-91.3,49.8c-5.4,2.9-10.2,6.5-14.7,10.4c53.2,44.9,121.9,72,197,72
	c74.5,0,142.8-26.7,195.9-70.9c-4.9-4.1-10.2-7.9-16.1-10.8L388,571.4c-12.6-6.3-20.6-19.2-20.6-33.3v-38.4
	c2.7-3.1,5.9-7.1,9.2-11.9c13.3-18.8,23.4-39.5,30.4-61.2c12.5-3.9,21.8-15.5,21.8-29.2v-40.9c0-9-4-17.1-10.2-22.7v-59.2
	c0,0,12.2-92.1-112.6-92.1s-112.6,92.1-112.6,92.1v59.2c-6.2,5.6-10.2,13.7-10.2,22.7v40.9c0,10.8,5.7,20.3,14.2,25.8
	c10.2,44.5,37,76.6,37,76.6v37.4C234.4,550.7,226.9,563.3,214.9,569.8z"/>
<g>
	<path fill="#2C3E50" d="M311.2,90C142.3,87.2,2.9,221.8,0,390.8c-1.6,95.8,41.1,181.9,109.1,239.2c4.4-3.9,9.2-7.4,14.5-10.3
		l91.3-49.8c12-6.5,19.4-19.1,19.4-32.7v-37.4c0,0-26.8-32.1-37-76.6c-8.5-5.5-14.2-15-14.2-25.8v-40.9c0-9,4-17.1,10.2-22.7v-59.2
		c0,0-12.2-92.1,112.6-92.1s112.6,92.1,112.6,92.1v59.2c6.2,5.6,10.2,13.7,10.2,22.7v40.9c0,13.8-9.2,25.3-21.8,29.2
		c-7,21.7-17.1,42.4-30.4,61.2c-3.4,4.7-6.5,8.8-9.2,11.9V538c0,14.1,8,27,20.6,33.3l97.8,48.9c5.9,2.9,11.2,6.6,16.1,10.8
		c65.9-55,108.5-137.2,110.1-229.8C614.8,232.3,480.2,92.9,311.2,90z"/>
</g>
</svg>
