<?xml version="1.0" encoding="utf-8"?>
<!-- Generator: Adobe Illustrator 18.0.0, SVG Export Plug-In . SVG Version: 6.00 Build 0)  -->
<!DOCTYPE svg PUBLIC "-//W3C//DTD SVG 1.1//EN" "http://www.w3.org/Graphics/SVG/1.1/DTD/svg11.dtd">
<svg version="1.1" id="Capa_1" xmlns="http://www.w3.org/2000/svg" xmlns:xlink="http://www.w3.org/1999/xlink" x="0px" y="0px"
	 viewBox="0 90 612 611.7" enable-background="new 0 90 612 611.7" xml:space="preserve">
<path fill="#2C3E50" d="M538.1,617.1c0-32.1-18.1-61.4-46.8-75.7L390.6,491c-13-6.5-21.3-19.8-21.3-34.4v-39.5
	c2.8-3.2,6.1-7.4,9.5-12.3c13.7-19.4,24.1-40.7,31.3-63.1c12.9-4,22.4-15.9,22.4-30.1v-42.2c0-9.3-4.1-17.6-10.6-23.4v-61
	c0,0,12.5-95-116.1-95c-128.6,0-116.1,95-116.1,95v61c-6.4,5.8-10.6,14.1-10.6,23.4v42.2c0,11.1,5.8,20.9,14.6,26.6
	c10.5,45.9,38.2,79,38.2,79v38.6c0,14.1-7.7,27-20,33.7L118,540.8c-27.2,14.8-44.1,43.3-44.1,74.3v23.6c0,0,0,6.9,0,10.6
	c0,29.1,103.9,52.8,232.1,52.8s232.1-23.6,232.1-52.8c0-3.6,0-10.6,0-10.6V617.1z"/>
</svg>
