<?xml version="1.0" encoding="utf-8"?>
<!-- Generator: Adobe Illustrator 18.0.0, SVG Export Plug-In . SVG Version: 6.00 Build 0)  -->
<!DOCTYPE svg PUBLIC "-//W3C//DTD SVG 1.1//EN" "http://www.w3.org/Graphics/SVG/1.1/DTD/svg11.dtd">
<svg version="1.1" id="Capa_1" xmlns="http://www.w3.org/2000/svg" xmlns:xlink="http://www.w3.org/1999/xlink" x="0px" y="0px"
	 viewBox="0 180 612 612" enable-background="new 0 180 612 612" xml:space="preserve">
<path fill="#2C3E50" d="M501.9,721c65.9-55,108.5-137.2,110.1-229.8c2.9-168.9-131.7-308.3-300.7-311.2
	C142.4,177.2,3,311.8,0.1,480.8c-1.6,95.8,41.1,181.8,109,239.1c0,0-0.1,0.1-0.1,0.1c53.2,44.9,121.9,72,197,72
	C380.5,792,448.8,765.3,501.9,721"/>
<path fill="#E7ECED" d="M102.8,496.2c-3.2-3.2-4.8-8-4.8-11.2c0-3.2,1.6-8,4.8-11.2l22.4-22.4c6.4-6.4,16-6.4,22.4,0l1.6,1.6
	l88,94.4c3.2,3.2,8,3.2,11.2,0L462.8,325h1.6l0,0c6.4-6.4,16-6.4,22.4,0l22.4,22.4c6.4,6.4,6.4,16,0,22.4l0,0l-256,265.6
	c-3.2,3.2-6.4,4.8-11.2,4.8s-8-1.6-11.2-4.8L106,501L102.8,496.2L102.8,496.2z"/>
</svg>
