<?xml version="1.0" encoding="utf-8"?>
<!-- Generator: Adobe Illustrator 18.0.0, SVG Export Plug-In . SVG Version: 6.00 Build 0)  -->
<!DOCTYPE svg PUBLIC "-//W3C//DTD SVG 1.1//EN" "http://www.w3.org/Graphics/SVG/1.1/DTD/svg11.dtd">
<svg version="1.1" id="Layer_1" xmlns="http://www.w3.org/2000/svg" xmlns:xlink="http://www.w3.org/1999/xlink" x="0px" y="0px"
	 viewBox="0 0 612 792" enable-background="new 0 0 612 792" xml:space="preserve">
<circle fill="#5AC2A0" cx="306" cy="396" r="306"/>
<path fill="#37A18E" d="M562.3,229.1L291.7,509.3l0.5,30.1h12.4l293.1-236.2C589.1,276.9,577.1,251.6,562.3,229.1z"/>
<path fill="#F2F1EF" d="M606.3,215.7l-54-53.6c-7.2-7.2-19.1-7.2-26.8,0L294.5,400.8l-99.9-98.5c-7.2-7.2-19.1-7.2-26.8,0L120,349.6
	c-7.2,7.2-7.2,19.1,0,26.3l159.7,158.3c4.3,4.3,10,5.7,15.8,5.3c5.7,0.5,11.5-1,15.8-5.3l295-291.7
	C613.4,234.9,613.4,222.9,606.3,215.7z"/>
<path fill="#E6E5E3" d="M311.3,534.2l295-291.7c7.2-7.2,7.2-19.1,0-26.3l-8.6-8.1L295,505.5l-167.3-163l-7.2,7.2
	c-7.2,7.2-7.2,19.1,0,26.3l159.7,158.3c4.3,4.3,10,5.7,15.8,5.3C301.2,539.9,307,538.5,311.3,534.2z"/>
</svg>
