<?xml version="1.0" encoding="utf-8"?>
<!-- Generator: Adobe Illustrator 18.0.0, SVG Export Plug-In . SVG Version: 6.00 Build 0)  -->
<!DOCTYPE svg PUBLIC "-//W3C//DTD SVG 1.1//EN" "http://www.w3.org/Graphics/SVG/1.1/DTD/svg11.dtd">
<svg version="1.1" id="Capa_1" xmlns="http://www.w3.org/2000/svg" xmlns:xlink="http://www.w3.org/1999/xlink" x="0px" y="0px"
	 viewBox="0 0 612 792" enable-background="new 0 0 612 792" xml:space="preserve">
<g>
	<rect x="15.6" y="141.9" fill="#E0C6A9" width="580.9" height="145.2"/>
	<polyline fill="#FFECD7" points="523.8,204.1 586.1,141.9 606.8,141.9 606.8,287.1 586.1,287.1 523.8,204.1 	"/>
	<polygon fill="#CCB297" points="523.8,204.1 523.8,287.1 586.1,287.1 	"/>
	<polyline fill="#FFECD7" points="88.2,204.1 25.9,141.9 5.2,141.9 5.2,287.1 25.9,287.1 88.2,204.1 	"/>
	<polygon fill="#CCB297" points="88.2,204.1 88.2,287.1 25.9,287.1 	"/>
	<path fill="#F0D7B8" d="M568,702H44c-21.4,0-38.8-17.4-38.8-38.8V287.1h601.6v376.1C606.8,684.6,589.4,702,568,702z"/>
	<circle fill="#72543A" cx="181.5" cy="370.1" r="31.1"/>
	<circle fill="#72543A" cx="430.5" cy="370.1" r="31.1"/>
	<path fill="#CEB69E" d="M306,567.2c-74.4,0-134.8-60.5-134.8-134.8v-62.2c0-5.7,4.6-10.4,10.4-10.4c5.7,0,10.4,4.6,10.4,10.4v62.2
		c0,62.9,51.2,114.1,114.1,114.1s114.1-51.2,114.1-114.1v-62.2c0-5.7,4.6-10.4,10.4-10.4c5.7,0,10.4,4.6,10.4,10.4v62.2
		C440.8,506.7,380.4,567.2,306,567.2z"/>
	<circle fill="#5AC2A0" cx="306" cy="173" r="83"/>
	<path fill="#FFFFFF" d="M306,234.4c-5.7,0-10.4-4.6-10.4-10.4V121.9c0-5.7,4.6-10.4,10.4-10.4c5.7,0,10.4,4.6,10.4,10.4V224
		C316.4,229.8,311.7,234.4,306,234.4z"/>
	<path fill="#FFFFFF" d="M306,234.4c-2.7,0-5.3-1-7.3-3c-4.1-4.1-4.1-10.6,0-14.7l44.7-44.7c4.1-4.1,10.6-4.1,14.7,0
		c4.1,4.1,4.1,10.6,0,14.7l-44.7,44.7C311.3,233.4,308.7,234.4,306,234.4z"/>
	<path fill="#FFFFFF" d="M306,234.4c-2.7,0-5.3-1-7.3-3L254,186.7c-4.1-4.1-4.1-10.6,0-14.7c4.1-4.1,10.6-4.1,14.7,0l44.7,44.7
		c4.1,4.1,4.1,10.6,0,14.7C311.3,233.4,308.7,234.4,306,234.4z"/>
</g>
</svg>
