<?xml version="1.0" encoding="utf-8"?>
<!-- Generator: Adobe Illustrator 18.0.0, SVG Export Plug-In . SVG Version: 6.00 Build 0)  -->
<!DOCTYPE svg PUBLIC "-//W3C//DTD SVG 1.1//EN" "http://www.w3.org/Graphics/SVG/1.1/DTD/svg11.dtd">
<svg version="1.1" id="Capa_1" xmlns="http://www.w3.org/2000/svg" xmlns:xlink="http://www.w3.org/1999/xlink" x="0px" y="0px"
	 viewBox="0 0 561 561" enable-background="new 0 0 561 561" xml:space="preserve">
<g>
	<g id="people">
		<path fill="#34495E" d="M382.5,255c43.4,0,76.5-33.1,76.5-76.5S425.9,102,382.5,102S306,135.1,306,178.5S339.1,255,382.5,255z
			 M178.5,255c43.4,0,76.5-33.1,76.5-76.5S221.9,102,178.5,102S102,135.1,102,178.5S135.1,255,178.5,255z M178.5,306
			C119.8,306,0,336.6,0,395.3V459h357v-63.8C357,336.6,237.1,306,178.5,306z M382.5,306c-7.6,0-15.3,0-25.5,2.5
			c30.6,20.4,51,51,51,86.7V459h153v-63.8C561,336.6,441.1,306,382.5,306z"/>
	</g>
</g>
</svg>
