<?xml version="1.0" encoding="utf-8"?>
<!-- Generator: Adobe Illustrator 18.0.0, SVG Export Plug-In . SVG Version: 6.00 Build 0)  -->
<!DOCTYPE svg PUBLIC "-//W3C//DTD SVG 1.1//EN" "http://www.w3.org/Graphics/SVG/1.1/DTD/svg11.dtd">
<svg version="1.1" id="Capa_1" xmlns="http://www.w3.org/2000/svg" xmlns:xlink="http://www.w3.org/1999/xlink" x="0px" y="0px"
	 viewBox="0 0 510 510" enable-background="new 0 0 510 510" xml:space="preserve">
<g>
	<g id="receipt">
		<path fill="#34495E" d="M408,382.5H102v-51h306V382.5z M408,280.5H102v-51h306V280.5z M408,178.5H102v-51h306V178.5z M25.5,510
			l38.3-38.3L102,510l38.3-38.3l38.3,38.3l38.3-38.3L255,510l38.3-38.3l38.3,38.3l38.3-38.3L408,510l38.3-38.3l38.3,38.3V0
			l-38.3,38.3L408,0l-38.3,38.3L331.5,0l-38.3,38.3L255,0l-38.3,38.3L178.5,0l-38.3,38.3L102,0L63.8,38.3L25.5,0V510z"/>
	</g>
</g>
</svg>
