<?xml version="1.0" encoding="utf-8"?>
<!-- Generator: Adobe Illustrator 18.0.0, SVG Export Plug-In . SVG Version: 6.00 Build 0)  -->
<!DOCTYPE svg PUBLIC "-//W3C//DTD SVG 1.1//EN" "http://www.w3.org/Graphics/SVG/1.1/DTD/svg11.dtd">
<svg version="1.1" id="Capa_1" xmlns="http://www.w3.org/2000/svg" xmlns:xlink="http://www.w3.org/1999/xlink" x="0px" y="0px"
	 viewBox="0 0 612 792" enable-background="new 0 0 612 792" xml:space="preserve">
<g>
	<path fill="#3D465B" d="M580.3,95.3H31.7C14.2,95.3,0,109.5,0,126.9s14.2,31.7,31.7,31.7v-31.7h548.7v31.7
		c17.4,0,31.7-14.2,31.7-31.7S597.8,95.3,580.3,95.3z"/>
	<polygon fill="#F0EDE0" points="52.8,633.4 116.1,696.7 179.4,633.4 242.7,696.7 306,633.4 369.3,696.7 432.6,633.4 495.9,696.7 
		559.2,633.4 580.3,654.5 580.3,126.9 31.7,126.9 31.7,654.5 	"/>
	<path fill="#D4C3A5" d="M453.7,527.9H295.4c-5.8,0-10.6-4.7-10.6-10.6c0-5.8,4.7-10.6,10.6-10.6h158.3c5.8,0,10.6,4.7,10.6,10.6
		C464.3,523.2,459.5,527.9,453.7,527.9z"/>
	<path fill="#D4C3A5" d="M506.5,527.9c-2.7,0-5.5-1.2-7.5-3.1c-1.9-2-3.1-4.7-3.1-7.5c0-2.9,1.2-5.5,3.1-7.5c4-3.9,11-3.9,15,0
		c1.9,2,3.1,4.6,3.1,7.5c0,2.7-1.2,5.5-3.1,7.5C512,526.7,509.2,527.9,506.5,527.9z"/>
	<path fill="#D4C3A5" d="M506.5,380.2H348.2c-5.8,0-10.6-4.7-10.6-10.6c0-5.8,4.7-10.6,10.6-10.6h158.3c5.8,0,10.6,4.7,10.6,10.6
		C517,375.5,512.3,380.2,506.5,380.2z"/>
	<path fill="#D4C3A5" d="M506.5,454H401c-5.8,0-10.6-4.7-10.6-10.6c0-5.8,4.7-10.6,10.6-10.6h105.5c5.8,0,10.6,4.7,10.6,10.6
		C517,449.3,512.3,454,506.5,454z"/>
	<path fill="#D4C3A5" d="M316.6,454h-21.1c-5.8,0-10.6-4.7-10.6-10.6c0-5.8,4.7-10.6,10.6-10.6h21.1c5.8,0,10.6,4.7,10.6,10.6
		C327.1,449.3,322.4,454,316.6,454z"/>
	<path fill="#D4C3A5" d="M453.7,306.3H295.4c-5.8,0-10.6-4.7-10.6-10.6c0-5.8,4.7-10.6,10.6-10.6h158.3c5.8,0,10.6,4.7,10.6,10.6
		C464.3,301.6,459.5,306.3,453.7,306.3z"/>
	<path fill="#D4C3A5" d="M506.5,306.3c-2.7,0-5.5-1.2-7.5-3.1c-1.9-2-3.1-4.7-3.1-7.5c0-2.9,1.2-5.5,3.1-7.5c3.9-3.9,11.1-3.9,15,0
		c1.9,2,3.1,4.7,3.1,7.5c0,2.7-1.2,5.5-3.1,7.5C512,305.1,509.3,306.3,506.5,306.3z"/>
	<path fill="#D4C3A5" d="M306,380.2c-2.7,0-5.5-1.2-7.5-3.1c-1.9-2-3.1-4.6-3.1-7.5c0-2.9,1.2-5.5,3.1-7.5c4-3.9,11.1-3.9,15,0
		c1.9,2,3.1,4.6,3.1,7.5c0,2.8-1.2,5.5-3.1,7.5C311.5,379,308.7,380.2,306,380.2z"/>
	<path fill="#D4C3A5" d="M358.8,454c-2.7,0-5.5-1.2-7.5-3.1c-1.9-2-3.1-4.7-3.1-7.5c0-2.7,1.2-5.5,3.1-7.5c4-3.9,11.1-3.9,15,0
		c1.9,1.9,3.1,4.6,3.1,7.5c0,2.8-1.2,5.5-3.1,7.5C364.2,452.9,361.5,454,358.8,454z"/>
	<path fill="#5AC2A0" d="M189.9,359.1c0,5.8,4.7,10.6,10.6,10.6c5.8,0,10.6-4.7,10.6-10.6c0-25.5-18.2-46.8-42.2-51.7v-11.6
		c0-5.8-4.7-10.6-10.6-10.6s-10.6,4.7-10.6,10.6v11.6c-11.5,2.3-22,8.5-29.7,17.6c-6.4,7.6-9.4,17.4-8.4,27.5
		c1.1,10.3,6.4,19.9,14.6,26.3l23.5,18.3v57.4c-12.3-4.4-21.1-16-21.1-29.7c0-5.8-4.7-10.6-10.6-10.6s-10.6,4.7-10.6,10.6
		c0,25.5,18.2,46.8,42.2,51.7v9.3c0,5.8,4.7,10.6,10.6,10.6s10.6-4.7,10.6-10.6v-9.3c11.5-2.3,22-8.5,29.7-17.6
		c6.4-7.6,9.4-17.4,8.4-27.5c-1.1-10.3-6.4-19.9-14.6-26.3l-23.5-18.3v-57.4C181.1,333.7,189.9,345.3,189.9,359.1z M179.4,421.7
		c3.7,2.9,6.1,7.2,6.6,11.8c0.5,4.3-0.8,8.5-3.5,11.7c-3.7,4.3-8.4,7.4-13.6,9.2v-40.9L179.4,421.7z M137.2,362.1
		c-3.7-2.9-6.1-7.2-6.6-11.8c-0.4-4.3,0.8-8.5,3.5-11.6c3.7-4.3,8.4-7.4,13.6-9.2v40.9L137.2,362.1z"/>
	<g>
		<path fill="#A5A5A4" d="M63.3,211.3c-2.7,0-5.5-1.2-7.5-3.1c-1.9-2-3.1-4.7-3.1-7.5s1.2-5.5,3.1-7.5c4-3.9,11.1-3.9,15,0
			c1.9,2,3.1,4.7,3.1,7.5s-1.2,5.5-3.1,7.5C68.8,210.2,66.1,211.3,63.3,211.3z"/>
		<path fill="#A5A5A4" d="M497.7,200.8c0-5.8,4.6-10.6,10.6-10.6l0,0c5.8,0,10.6,4.7,10.6,10.6l0,0c0,5.8-4.7,10.6-10.6,10.6l0,0
			C502.4,211.3,497.7,206.6,497.7,200.8z M457.2,200.8c0-5.8,4.7-10.6,10.6-10.6l0,0c5.9,0,10.6,4.7,10.6,10.6l0,0
			c0,5.8-4.6,10.6-10.6,10.6l0,0C462,211.3,457.2,206.6,457.2,200.8z M416.8,200.8c0-5.8,4.7-10.6,10.6-10.6l0,0
			c5.8,0,10.6,4.7,10.6,10.6l0,0c0,5.8-4.7,10.6-10.6,10.6l0,0C421.5,211.3,416.8,206.6,416.8,200.8z M376.4,200.8
			c0-5.8,4.6-10.6,10.6-10.6l0,0c5.8,0,10.6,4.7,10.6,10.6l0,0c0,5.8-4.7,10.6-10.6,10.6l0,0C381,211.3,376.4,206.6,376.4,200.8z
			 M335.9,200.8c0-5.8,4.7-10.6,10.6-10.6l0,0c5.9,0,10.6,4.7,10.6,10.6l0,0c0,5.8-4.6,10.6-10.6,10.6l0,0
			C340.6,211.3,335.9,206.6,335.9,200.8z M295.4,200.8c0-5.8,4.7-10.6,10.6-10.6l0,0c5.8,0,10.6,4.7,10.6,10.6l0,0
			c0,5.8-4.7,10.6-10.6,10.6l0,0C300.2,211.3,295.4,206.6,295.4,200.8z M255,200.8c0-5.8,4.6-10.6,10.6-10.6l0,0
			c5.8,0,10.6,4.7,10.6,10.6l0,0c0,5.8-4.7,10.6-10.6,10.6l0,0C259.7,211.3,255,206.6,255,200.8z M214.5,200.8
			c0-5.8,4.7-10.6,10.6-10.6l0,0c5.9,0,10.6,4.7,10.6,10.6l0,0c0,5.8-4.6,10.6-10.6,10.6l0,0C219.3,211.3,214.5,206.6,214.5,200.8z
			 M174.1,200.8c0-5.8,4.7-10.6,10.6-10.6l0,0c5.8,0,10.6,4.7,10.6,10.6l0,0c0,5.8-4.7,10.6-10.6,10.6l0,0
			C178.9,211.3,174.1,206.6,174.1,200.8z M133.7,200.8c0-5.8,4.6-10.6,10.6-10.6l0,0c5.8,0,10.6,4.7,10.6,10.6l0,0
			c0,5.8-4.7,10.6-10.6,10.6l0,0C138.3,211.3,133.7,206.6,133.7,200.8z M93.2,200.8c0-5.8,4.7-10.6,10.6-10.6l0,0
			c5.9,0,10.6,4.7,10.6,10.6l0,0c0,5.8-4.6,10.6-10.6,10.6l0,0C97.9,211.3,93.2,206.6,93.2,200.8z"/>
		<path fill="#A5A5A4" d="M548.7,211.3c-2.8,0-5.5-1.2-7.5-3.2c-1.9-1.9-3.1-4.6-3.1-7.4s1.2-5.5,3.1-7.5c3.8-3.9,11-3.9,15,0
			c1.9,2,3.1,4.7,3.1,7.5s-1.2,5.5-3.1,7.5C554.2,210.2,551.4,211.3,548.7,211.3z"/>
	</g>
</g>
</svg>
