<?xml version="1.0" encoding="utf-8"?>
<!-- Generator: Adobe Illustrator 18.0.0, SVG Export Plug-In . SVG Version: 6.00 Build 0)  -->
<!DOCTYPE svg PUBLIC "-//W3C//DTD SVG 1.1//EN" "http://www.w3.org/Graphics/SVG/1.1/DTD/svg11.dtd">
<svg version="1.1" id="Capa_1" xmlns="http://www.w3.org/2000/svg" xmlns:xlink="http://www.w3.org/1999/xlink" x="0px" y="0px"
	 viewBox="0 0 612 792" enable-background="new 0 0 612 792" xml:space="preserve">
<g>
	<g>
		<path fill="#F3715B" d="M134.6,151.2H24.5c-6.6,0-12.3,2.4-17.3,7.2C2.4,163.3,0,169,0,175.7v244.8c0,6.6,2.4,12.3,7.2,17.1
			s10.6,7.2,17.3,7.2h110.1c6.6,0,12.3-2.4,17.1-7.2s7.2-10.6,7.2-17.1V175.7c0-6.6-2.4-12.3-7.2-17.1
			C147,153.6,141.2,151.2,134.6,151.2z M90.7,241.9c-4.8,4.8-10.6,7.2-17.1,7.2c-6.8,0-12.7-2.4-17.4-7.2
			c-4.7-4.8-7.1-10.6-7.1-17.1c0-6.8,2.4-12.7,7.1-17.4c4.7-4.7,10.5-7.1,17.4-7.1c6.6,0,12.3,2.4,17.1,7.1
			c4.8,4.7,7.2,10.6,7.2,17.4C97.9,231.2,95.5,237,90.7,241.9z"/>
		<path fill="#F3715B" d="M591,363.4c3.9-11.3,5.8-20.9,5.8-29.1c0.8-19.4-4.7-36.8-16.5-52.4c4.3-14.3,4.3-29.2,0-44.7
			c-3.8-14.5-10.7-26.5-20.6-35.9c2.3-28.5-4-51.6-18.8-69.3c-16.3-19.4-41.4-29.3-75.3-29.9h-13.8h-29.1h-6.6
			c-16.9,0-35.2,2-55.1,5.9c-19.8,4-35.4,7.6-46.5,11.1c-11.1,3.5-26.5,8.4-46.1,15.1c-31.4,11-51.4,16.6-60.4,16.9
			c-6.6,0.3-12.3,2.7-17.1,7.5c-5,4.7-7.4,10.3-7.4,17v245.2c0,6.4,2.3,11.9,6.8,16.6c4.6,4.7,10,7.4,16.5,7.9
			c6.2,0.5,15.8,8,29.1,22.5s26.1,30,38.6,46.4c17.3,22.2,30.3,37.5,38.6,46c4.6,4.6,8.6,10.7,11.8,18.4c3.3,7.6,5.5,13.8,6.7,18.5
			c1.2,4.7,2.8,12.5,5.2,23.2c1.7,9.9,3.3,17.7,4.8,23.3c1.3,5.6,3.9,12.2,7.5,19.8c3.6,7.6,7.9,14.1,13,19.2
			c4.8,4.8,10.6,7.2,17.1,7.2c11.8,0,22.2-1.3,31.6-4c9.2-2.7,17-6,22.9-9.9c6-4,11.1-9.1,15.3-15.5c4.2-6.4,7.2-12.1,9.2-17.1
			c1.9-5.1,3.5-11.5,4.6-19.2c1.2-7.6,1.7-13.4,1.9-17.3c0.1-3.9,0.1-8.8,0.1-14.9c0-9.6-1.2-19.4-3.9-29.2
			c-2.5-9.8-5-17.3-7.2-22.4c-2.3-5.1-5.8-12.3-10.3-21.8c-0.8-1.5-2-3.9-3.9-6.8c-1.7-3.1-3.2-5.9-4.2-8.4c-1.1-2.5-2-5.6-3.1-9.2
			h106.2c19.8,0,37-7.2,51.4-21.8c14.5-14.5,21.7-31.8,22-51.6C612,398,605,379.1,591,363.4z"/>
	</g>
</g>
</svg>
