<?xml version="1.0" encoding="utf-8"?>
<!-- Generator: Adobe Illustrator 18.0.0, SVG Export Plug-In . SVG Version: 6.00 Build 0)  -->
<!DOCTYPE svg PUBLIC "-//W3C//DTD SVG 1.1//EN" "http://www.w3.org/Graphics/SVG/1.1/DTD/svg11.dtd">
<svg version="1.1" id="Camada_1" xmlns="http://www.w3.org/2000/svg" xmlns:xlink="http://www.w3.org/1999/xlink" x="0px" y="0px"
	 viewBox="0 0 612 735.9" enable-background="new 0 0 612 735.9" xml:space="preserve">
<g>
	<path fill="#33B298" d="M564.4,735.9H48.9c-26.1,0-47.3-18.4-47.3-41.2V41.2C1.6,18.4,22.8,0,48.9,0h515.5
		c26.1,0,47.3,18.4,47.3,41.2v653.5C611.7,717.5,590.5,735.9,564.4,735.9z"/>
	<path fill="#63BDA7" d="M574.8,705.5H38.5c-20.4,0-36.9-15.9-36.9-35.4V270.7c0-19.6,16.5-35.4,36.9-35.4h536.3
		c20.4,0,36.9,15.9,36.9,35.4v399.4C611.7,689.7,595.2,705.5,574.8,705.5z"/>
	<g>
		<path fill="#EBD9C8" d="M46.8,82.4v88.7c0,18.5,18.6,33.4,41.5,33.4h222.1V49H88.3C65.4,49,46.8,63.9,46.8,82.4z"/>
	</g>
	<path fill="#F7EADB" d="M88.3,204.5h444.2c22.9,0,41.5-15,41.5-33.4V82.4c0-18.5-18.6-33.4-41.5-33.4H88.3
		c-22.9,0-41.5,15-41.5,33.4v88.7C46.8,189.6,65.4,204.5,88.3,204.5z"/>
	<path fill="#26A78A" d="M283.5,381.7H202c-6.4,0-11.6-7-11.6-15.5v-72.2c0-8.6,5.2-15.5,11.6-15.5h81.5c6.4,0,11.6,7,11.6,15.5
		v72.2C295.1,374.7,289.9,381.7,283.5,381.7z"/>
	<path fill="#26A78A" d="M564.8,688h-85.7c-2.1,0-3.8-1.9-3.8-4.2V440.3c0-2.3,1.7-4.2,3.8-4.2h85.7c2.1,0,3.8,1.9,3.8,4.2v243.5
		C568.7,686.1,567,688,564.8,688z"/>
	<path fill="#EBD9C6" d="M279.9,366.9h-75c-8.2,0-14.9-7.7-14.9-17.3v-55c0-9.5,6.7-17.3,14.9-17.3h75c8.2,0,14.9,7.7,14.9,17.3v55
		C294.8,359.2,288.1,366.9,279.9,366.9z"/>
	<path fill="#26A78A" d="M283.2,530.3h-81.5c-6.4,0-11.6-7-11.6-15.5v-72.2c0-8.6,5.2-15.5,11.6-15.5h81.5c6.4,0,11.6,7,11.6,15.5
		v72.2C294.8,523.3,289.6,530.3,283.2,530.3z"/>
	<path fill="#EBD9C6" d="M280.2,515.2h-75c-8.2,0-14.9-7.7-14.9-17.3v-55c0-9.5,6.7-17.3,14.9-17.3h75c8.2,0,14.9,7.7,14.9,17.3v55
		C295.1,507.4,288.5,515.2,280.2,515.2z"/>
	<path fill="#26A78A" d="M423,530.5h-81.5c-6.4,0-11.6-7-11.6-15.5v-72.2c0-8.6,5.2-15.5,11.6-15.5H423c6.4,0,11.6,7,11.6,15.5V515
		C434.6,523.5,429.4,530.5,423,530.5z"/>
	<path fill="#F7EADB" d="M419.7,516.8h-75c-8.2,0-14.9-7.7-14.9-17.3v-55c0-9.5,6.7-17.3,14.9-17.3h75c8.2,0,14.9,7.7,14.9,17.3v55
		C434.6,509.1,427.9,516.8,419.7,516.8z"/>
	<path fill="#26A78A" d="M423,381.7h-81.5c-6.4,0-11.6-7-11.6-15.5v-72.2c0-8.6,5.2-15.5,11.6-15.5H423c6.4,0,11.6,7,11.6,15.5v72.2
		C434.6,374.7,429.4,381.7,423,381.7z"/>
	<path fill="#F7EADB" d="M419.7,366.9h-75c-8.2,0-14.9-7.7-14.9-17.3v-55c0-9.5,6.7-17.3,14.9-17.3h75c8.2,0,14.9,7.7,14.9,17.3v55
		C434.6,359.2,427.9,366.9,419.7,366.9z"/>
	<path fill="#26A78A" d="M557.1,381.7h-81.5c-6.4,0-11.6-7-11.6-15.5v-72.2c0-8.6,5.2-15.5,11.6-15.5h81.5c6.4,0,11.6,7,11.6,15.5
		v72.2C568.8,374.7,563.6,381.7,557.1,381.7z"/>
	<path fill="#BA722C" d="M553.8,366.9h-75c-8.2,0-14.9-7.7-14.9-17.3v-55c0-9.5,6.7-17.3,14.9-17.3h75c8.2,0,14.9,7.7,14.9,17.3v55
		C568.8,359.2,562.1,366.9,553.8,366.9z"/>
	<path fill="#26A78A" d="M423,688h-81.5c-6.4,0-11.6-7-11.6-15.5v-72.2c0-8.6,5.2-15.5,11.6-15.5H423c6.4,0,11.6,7,11.6,15.5v72.2
		C434.6,681,429.4,688,423,688z"/>
	<path fill="#F7EADB" d="M419.7,674.3h-75c-8.2,0-14.9-7.7-14.9-17.3v-55c0-9.5,6.7-17.3,14.9-17.3h75c8.2,0,14.9,7.7,14.9,17.3v55
		C434.6,666.5,427.9,674.3,419.7,674.3z"/>
	<path fill="#26A78A" d="M202,688c-6.4,0-11.6-7-11.6-15.5v-72.2c0-8.6,5.2-15.5,11.6-15.5h81.5c6.4,0,11.6,7,11.6,15.5v72.2
		c0,8.6-5.2,15.5-11.6,15.5"/>
	<path fill="#EBD9C6" d="M280.2,674.3h-75c-8.2,0-14.9-7.7-14.9-17.3v-55c0-9.5,6.7-17.3,14.9-17.3h75c8.2,0,14.9,7.7,14.9,17.3v55
		C295.1,666.5,288.5,674.3,280.2,674.3z"/>
	<path fill="#F6A340" d="M557.6,671.7h-71.2c-5.8,0-10.5-6.2-10.5-13.9V447.5c0-7.7,4.7-13.9,10.5-13.9h71.2
		c5.8,0,10.5,6.2,10.5,13.9v210.3C568.1,665.5,563.4,671.7,557.6,671.7z"/>
	<path fill="#26A78A" d="M143.9,381.7H62.4c-6.4,0-11.6-7-11.6-15.5v-72.2c0-8.6,5.2-15.5,11.6-15.5h81.5c6.4,0,11.6,7,11.6,15.5
		v72.2C155.5,374.7,150.3,381.7,143.9,381.7z"/>
	<path fill="#EBD9C6" d="M140.6,366.9h-75c-8.2,0-14.9-7.7-14.9-17.3v-55c0-9.5,6.7-17.3,14.9-17.3h75c8.2,0,14.9,7.7,14.9,17.3v55
		C155.5,359.2,148.8,366.9,140.6,366.9z"/>
	<path fill="#26A78A" d="M144.1,529.6H62.5c-6.4,0-11.6-7-11.6-15.5v-72.2c0-8.6,5.2-15.5,11.6-15.5h81.5c6.4,0,11.6,7,11.6,15.5
		V514C155.7,522.6,150.5,529.6,144.1,529.6z"/>
	<path fill="#EBD9C6" d="M140.4,515.1h-75c-8.2,0-14.9-7.7-14.9-17.3v-55c0-9.5,6.7-17.3,14.9-17.3h75c8.2,0,14.9,7.7,14.9,17.3v55
		C155.4,507.4,148.7,515.1,140.4,515.1z"/>
	<path fill="#26A78A" d="M143.9,688H62.4c-6.4,0-11.6-7-11.6-15.5v-72.2c0-8.6,5.2-15.5,11.6-15.5h81.5c6.4,0,11.6,7,11.6,15.5v72.2
		C155.5,681,150.3,688,143.9,688z"/>
	<path fill="#EBD9C6" d="M65.6,674.3c-8.2,0-14.9-7.7-14.9-17.3v-55c0-9.5,6.7-17.3,14.9-17.3h75c8.2,0,14.9,7.7,14.9,17.3v55
		c0,9.5-6.7,17.3-14.9,17.3"/>
</g>
</svg>
