<?xml version="1.0" encoding="utf-8"?>
<!-- Generator: Adobe Illustrator 18.0.0, SVG Export Plug-In . SVG Version: 6.00 Build 0)  -->
<!DOCTYPE svg PUBLIC "-//W3C//DTD SVG 1.1//EN" "http://www.w3.org/Graphics/SVG/1.1/DTD/svg11.dtd">
<svg version="1.1" id="Capa_1" xmlns="http://www.w3.org/2000/svg" xmlns:xlink="http://www.w3.org/1999/xlink" x="0px" y="0px"
	 viewBox="0 0 612 612" enable-background="new 0 0 612 612" xml:space="preserve">
<g>
	<g id="Search_1_">
		<g>
			<path fill="#34495E" d="M598.2,531.6L487.6,421c30.3-43.4,48.2-96.1,48.2-153.1C535.9,120,415.9,0,267.9,0S0,120,0,267.9
				s120,267.9,267.9,267.9c57,0,109.7-17.9,153.1-48.2l110.5,110.5c18.4,18.4,48.2,18.4,66.6,0C616.6,579.8,616.6,550,598.2,531.6z
				 M267.9,459.3c-105.7,0-191.4-85.7-191.4-191.4S162.3,76.6,267.9,76.6c105.7,0,191.4,85.7,191.4,191.4
				C459.3,373.6,373.6,459.3,267.9,459.3z"/>
		</g>
	</g>
</g>
</svg>
