<?xml version="1.0" encoding="utf-8"?>
<!-- Generator: Adobe Illustrator 18.0.0, SVG Export Plug-In . SVG Version: 6.00 Build 0)  -->
<!DOCTYPE svg PUBLIC "-//W3C//DTD SVG 1.1//EN" "http://www.w3.org/Graphics/SVG/1.1/DTD/svg11.dtd">
<svg version="1.1" id="Capa_1" xmlns="http://www.w3.org/2000/svg" xmlns:xlink="http://www.w3.org/1999/xlink" x="0px" y="0px"
	 viewBox="0 108 612 612" enable-background="new 0 108 612 612" xml:space="preserve">
<g id="XMLID_1123_">
	<g>
		<path fill="#34495E" d="M532.9,108H79.1c-27.9,0-50.6,22.6-50.6,50.6v510.9c0,27.9,22.6,50.6,50.6,50.6h453.9
			c27.9,0,50.6-22.6,50.6-50.6V158.6C583.5,130.6,560.9,108,532.9,108z M192.2,634.7c0,7.7-6.2,13.9-13.9,13.9h-70.6
			c-7.7,0-13.9-6.2-13.9-13.9v-70.6c0-7.7,6.2-13.9,13.9-13.9h70.6c7.7,0,13.9,6.2,13.9,13.9V634.7z M192.2,478.5
			c0,7.7-6.2,13.9-13.9,13.9h-70.6c-7.7,0-13.9-6.2-13.9-13.9V408c0-7.7,6.2-13.9,13.9-13.9h70.6c7.7,0,13.9,6.2,13.9,13.9V478.5z
			 M355.2,634.7c0,7.7-6.2,13.9-13.9,13.9h-70.6c-7.7,0-13.9-6.2-13.9-13.9v-70.6c0-7.7,6.2-13.9,13.9-13.9h70.6
			c7.7,0,13.9,6.2,13.9,13.9V634.7z M355.2,478.5c0,7.7-6.2,13.9-13.9,13.9h-70.6c-7.7,0-13.9-6.2-13.9-13.9V408
			c0-7.7,6.2-13.9,13.9-13.9h70.6c7.7,0,13.9,6.2,13.9,13.9V478.5z M518.2,634.7c0,7.7-6.2,13.9-13.9,13.9h-70.6
			c-7.7,0-13.9-6.2-13.9-13.9v-70.6c0-7.7,6.2-13.9,13.9-13.9h70.6c7.7,0,13.9,6.2,13.9,13.9V634.7z M518.2,478.5
			c0,7.7-6.2,13.9-13.9,13.9h-70.6c-7.7,0-13.9-6.2-13.9-13.9V408c0-7.7,6.2-13.9,13.9-13.9h70.6c7.7,0,13.9,6.2,13.9,13.9V478.5z
			 M518.2,309.6c0,7.7-6.2,13.9-13.9,13.9H107.7c-7.7,0-13.9-6.2-13.9-13.9V183.1c0-7.7,6.2-13.9,13.9-13.9h396.5
			c7.7,0,13.9,6.2,13.9,13.9V309.6z"/>
	</g>
</g>
</svg>
